<svg xmlns="http://www.w3.org/2000/svg" width="1024" height="1024" viewBox="0 0 1024 1024" version="1.1"><path d="M 311.121 360.710 C 307.991 362.252, 304.007 367.174, 304.007 369.500 C 304.007 370.050, 304.841 369.150, 305.861 367.500 C 310.010 360.783, 310.695 360.552, 328.352 359.941 L 344.500 359.382 329.500 359.214 C 317.283 359.077, 313.873 359.354, 311.121 360.710 M 347.354 362.452 C 350.903 365.741, 350.828 370.425, 347.039 382.206 C 345.411 387.269, 344.252 391.585, 344.463 391.797 C 345.280 392.613, 351 372.772, 351 369.123 C 351 365.272, 347.984 360, 345.781 360 C 345.191 360, 345.899 361.104, 347.354 362.452 M 299.500 382 C 298.563 384.821, 298.021 387.355, 298.296 387.630 C 298.571 387.905, 299.563 385.821, 300.500 383 C 301.437 380.179, 301.979 377.645, 301.704 377.370 C 301.429 377.095, 300.437 379.179, 299.500 382 M 294.522 397.522 C 293.016 402.250, 291.973 406.306, 292.203 406.536 C 292.433 406.767, 293.848 403.082, 295.348 398.348 C 296.847 393.614, 297.891 389.557, 297.667 389.333 C 297.442 389.109, 296.027 392.794, 294.522 397.522 M 736.500 391.931 C 734.218 392.300, 738.297 392.596, 746 392.621 C 755.577 392.651, 758.047 392.447, 754.500 391.919 C 748.563 391.036, 742.008 391.040, 736.500 391.931 M 447.745 394.732 C 450.589 394.988, 452.320 395.729, 452.987 396.976 C 454.063 398.987, 454.507 611.251, 453.442 614.623 C 452.911 616.303, 452.988 616.290, 454.174 614.500 C 455.260 612.862, 455.439 593.110, 455.162 505.500 C 454.784 385.706, 455.329 393.861, 447.727 394.175 L 443.500 394.349 447.745 394.732 M 491.219 395.181 C 490.272 396.128, 490.054 420.759, 490.243 505.450 L 490.487 614.500 490.993 505 L 491.500 395.500 512.930 395.230 C 527.148 395.050, 534.719 395.319, 535.430 396.028 C 536.111 396.708, 536.695 407.157, 537.038 424.798 L 537.576 452.500 537.773 426 C 537.920 406.294, 537.646 398.859, 536.706 397 L 535.442 394.500 513.940 394.231 C 498.057 394.032, 492.119 394.281, 491.219 395.181 M 716 395.959 C 708.735 398.384, 710.761 398.436, 719 396.036 C 722.575 394.995, 724.600 394.138, 723.500 394.132 C 722.400 394.127, 719.025 394.949, 716 395.959 M 340.070 402.509 C 338.932 406.195, 338.037 409.726, 338.081 410.355 C 338.126 410.985, 339.229 408.140, 340.531 404.033 C 341.834 399.927, 342.729 396.396, 342.520 396.187 C 342.311 395.978, 341.209 398.823, 340.070 402.509 M 407.245 505.168 C 407.110 564.386, 407.273 613.548, 407.607 614.418 C 407.941 615.288, 408.671 616, 409.229 616 C 409.866 616, 409.828 615.497, 409.127 614.653 C 408.322 613.683, 407.937 583.112, 407.750 505.403 L 407.491 397.500 407.245 505.168 M 783 399.170 C 784.375 399.819, 788.722 401.799, 792.660 403.569 C 802.991 408.212, 813.484 415.298, 820.674 422.489 C 824.119 425.934, 826.541 428.010, 826.055 427.103 C 824.561 424.311, 814.838 415.619, 808.119 411.069 C 801.698 406.720, 787.646 399.748, 783 398.605 L 780.500 397.989 783 399.170 M 692.799 405.361 C 682.206 411.397, 676.595 415.679, 668.829 423.652 C 660.310 432.397, 655.388 438.736, 650.311 447.500 C 645.527 455.758, 636.881 477, 638.303 477 C 638.544 477, 639.966 473.512, 641.464 469.250 C 651.526 440.620, 669.643 418.914, 695 405.111 C 699.125 402.865, 702.039 401.022, 701.476 401.014 C 700.912 401.006, 697.008 402.962, 692.799 405.361 M 288.263 418.263 C 287.095 422.229, 286.306 425.639, 286.509 425.842 C 286.712 426.045, 287.857 422.990, 289.053 419.053 C 290.249 415.115, 291.038 411.705, 290.807 411.473 C 290.576 411.242, 289.431 414.298, 288.263 418.263 M 205.138 427.377 C 202.428 429.785, 195.325 436.650, 189.355 442.634 C 183.385 448.618, 171.075 460.485, 162 469.006 C 152.925 477.527, 142.626 487.199, 139.113 490.499 C 132.290 496.909, 127.950 504.410, 128.119 509.500 C 128.201 511.962, 128.373 511.719, 129.075 508.147 C 130.472 501.042, 134.358 495.746, 145.737 485.441 C 151.657 480.079, 168.149 464.399, 182.387 450.596 C 196.624 436.793, 209.224 424.953, 210.387 424.285 C 211.549 423.617, 211.953 423.055, 211.283 423.035 C 210.614 423.016, 207.849 424.970, 205.138 427.377 M 220.500 424.866 C 222.700 425.868, 226.188 428.559, 228.250 430.847 C 231.306 434.236, 232 435.770, 232 439.135 C 232 445.009, 229.743 448.066, 214.744 462.505 C 186.253 489.934, 168 508.222, 168.004 509.335 C 168.007 509.976, 170.032 512.731, 172.504 515.458 C 174.977 518.185, 177 519.858, 177 519.177 C 177 518.495, 176.363 517.693, 175.584 517.394 C 174.806 517.095, 172.933 515.067, 171.422 512.887 L 168.675 508.924 180.088 497.883 C 206.834 472.008, 230.264 448.310, 231.582 445.800 C 233.553 442.046, 233.346 436.079, 231.117 432.424 C 229.080 429.083, 220.625 422.987, 218.079 423.022 C 217.210 423.034, 218.300 423.864, 220.500 424.866 M 283.612 431.624 C 282.726 434.227, 282.033 436.839, 282.073 437.428 C 282.113 438.018, 283.012 436.061, 284.070 433.080 C 285.128 430.099, 285.821 427.487, 285.609 427.276 C 285.398 427.065, 284.499 429.021, 283.612 431.624 M 812.482 446.635 C 805.322 453.986, 799.719 460, 800.031 460 C 800.830 460, 826 434.474, 826 433.664 C 826 432.712, 826.663 432.077, 812.482 446.635 M 747.058 438.069 C 751.216 438.510, 757.513 439.541, 761.053 440.358 C 768.283 442.029, 770.501 441.750, 763.971 439.992 C 757.323 438.202, 748.910 437, 744 437.139 C 740.616 437.234, 741.374 437.465, 747.058 438.069 M 279.469 445.706 C 278.492 449.443, 276.911 453.850, 275.956 455.500 C 274.197 458.536, 271.594 468.927, 272.392 469.725 C 272.630 469.964, 273.356 467.535, 274.004 464.329 C 274.653 461.123, 275.859 457.439, 276.685 456.142 C 278.320 453.577, 282.337 440.004, 281.662 439.328 C 281.433 439.100, 280.446 441.970, 279.469 445.706 M 718.541 443.047 C 715.263 444.709, 711.852 446.729, 710.962 447.535 C 710.071 448.341, 708.852 449, 708.252 449 C 706.152 449, 694.029 463.417, 690.531 470.073 C 688.589 473.769, 687.022 477.177, 687.048 477.646 C 687.075 478.116, 688.487 475.800, 690.187 472.500 C 697.923 457.481, 707.998 448.422, 725 441.198 C 726.375 440.613, 726.825 440.111, 726 440.080 C 725.175 440.050, 721.818 441.385, 718.541 443.047 M 773.633 444.867 C 780.117 448.442, 784.339 451.384, 789.891 456.195 C 792.306 458.288, 794.725 460, 795.268 460 C 797.054 460, 782.985 449.090, 776.581 445.508 C 773.131 443.579, 769.901 442.008, 769.404 442.018 C 768.907 442.028, 770.810 443.310, 773.633 444.867 M 316.609 474.609 C 315.077 479.311, 314.001 483.334, 314.216 483.549 C 314.431 483.764, 315.860 480.093, 317.391 475.391 C 318.923 470.689, 319.999 466.666, 319.784 466.451 C 319.569 466.236, 318.140 469.907, 316.609 474.609 M 636.596 480.250 C 636.246 481.488, 635.772 486.325, 635.543 491 L 635.128 499.500 635.915 492.500 C 636.348 488.650, 637.044 483.813, 637.462 481.750 C 638.285 477.694, 637.637 476.573, 636.596 480.250 M 683.078 487.656 C 682.491 489.770, 682.047 492.400, 682.091 493.500 C 682.134 494.600, 682.768 493.025, 683.499 490 C 685.020 483.709, 684.688 481.860, 683.078 487.656 M 311.714 490.214 C 310.804 493.062, 310.225 495.558, 310.427 495.761 C 310.630 495.964, 311.563 493.821, 312.500 491 C 313.437 488.179, 314.016 485.683, 313.787 485.454 C 313.558 485.224, 312.625 487.367, 311.714 490.214 M 755.311 492.913 C 752.458 493.260, 749.758 493.943, 749.311 494.431 C 748.840 494.947, 749.338 494.956, 750.500 494.454 C 753.844 493.007, 843.835 492.618, 845.552 494.043 C 846.708 495.003, 847.046 499.100, 847.227 514.372 L 847.453 533.500 847.749 514.604 C 848.008 498.054, 847.837 495.477, 846.368 493.854 C 844.781 492.100, 842.413 492.008, 802.595 492.141 C 779.443 492.218, 758.165 492.566, 755.311 492.913 M 261.714 501.214 C 260.804 504.062, 260.225 506.558, 260.427 506.761 C 260.630 506.964, 261.563 504.821, 262.500 502 C 263.437 499.179, 264.016 496.683, 263.787 496.454 C 263.558 496.224, 262.625 498.367, 261.714 501.214 M 681.320 502 C 681.320 505.575, 681.502 507.038, 681.723 505.250 C 681.945 503.462, 681.945 500.538, 681.723 498.750 C 681.502 496.962, 681.320 498.425, 681.320 502 M 748.223 512.095 C 747.949 532.460, 747.674 531.998, 760.079 532.003 C 764.710 532.005, 775.564 532.300, 784.198 532.658 L 799.896 533.309 800.288 536.404 C 800.666 539.392, 800.686 539.374, 800.840 535.904 L 801 532.309 788.250 531.658 C 781.237 531.301, 770.043 531.006, 763.372 531.004 C 754.544 531.001, 750.947 530.640, 750.148 529.678 C 749.480 528.874, 748.933 521.930, 748.749 511.928 L 748.447 495.500 748.223 512.095 M 307.571 502.071 C 306.711 504.969, 306.187 507.520, 306.407 507.741 C 306.628 507.961, 307.505 505.764, 308.357 502.857 C 309.209 499.951, 309.733 497.400, 309.521 497.188 C 309.309 496.976, 308.432 499.174, 307.571 502.071 M 634.370 510 C 634.370 515.775, 634.535 518.138, 634.737 515.250 C 634.939 512.362, 634.939 507.637, 634.737 504.750 C 634.535 501.863, 634.370 504.225, 634.370 510 M 252.554 529.723 C 249.293 540.050, 246.413 549.175, 246.154 550 C 245.894 550.825, 245.951 551.264, 246.281 550.976 C 247.144 550.223, 259.067 512.701, 258.748 511.744 C 258.602 511.305, 255.814 519.395, 252.554 529.723 M 131.967 520.953 C 133.133 522.592, 140.926 530.360, 149.284 538.216 C 157.643 546.072, 169.132 557.112, 174.817 562.750 C 180.502 568.388, 185.456 572.975, 185.827 572.945 C 186.197 572.915, 179.075 565.830, 170 557.201 C 160.925 548.572, 148.178 536.216, 141.673 529.743 C 135.168 523.270, 130.800 519.315, 131.967 520.953 M 183 525.500 C 185.987 528.525, 188.657 531, 188.932 531 C 189.207 531, 186.987 528.525, 184 525.500 C 181.013 522.475, 178.343 520, 178.068 520 C 177.793 520, 180.013 522.475, 183 525.500 M 635.177 525 C 635.128 526.925, 635.730 531.200, 636.516 534.500 C 637.907 540.340, 637.928 540.366, 637.307 535.500 C 636.956 532.750, 636.353 528.475, 635.968 526 C 635.326 521.880, 635.260 521.796, 635.177 525 M 798.536 542.835 C 798.176 544.473, 796.329 548.443, 794.431 551.657 C 791.037 557.402, 791.029 557.441, 793.963 554 C 796.851 550.612, 800.727 541.394, 799.697 540.364 C 799.418 540.085, 798.896 541.197, 798.536 542.835 M 210 553.500 C 216.307 559.825, 221.692 565, 221.967 565 C 222.242 565, 217.307 559.825, 211 553.500 C 204.693 547.175, 199.308 542, 199.033 542 C 198.758 542, 203.693 547.175, 210 553.500 M 692 548.485 C 692 550.546, 701.363 560.635, 706.500 564.110 C 712.294 568.029, 711.824 567.488, 703.686 560.878 C 701.589 559.174, 698.101 555.539, 695.936 552.800 C 693.771 550.061, 692 548.120, 692 548.485 M 841.242 556.250 C 840.310 559.921, 831.519 576.598, 828.393 580.624 C 826.802 582.674, 821.602 588.229, 816.839 592.969 C 807.832 601.931, 795.744 609.657, 783.958 613.984 C 779.976 615.447, 779.446 615.825, 782 615.383 C 785.241 614.821, 792.214 611.644, 802.829 605.891 C 813.282 600.225, 830.307 581.369, 836.992 568.053 C 840.564 560.937, 843.215 554, 842.362 554 C 842.060 554, 841.556 555.013, 841.242 556.250 M 644 556.367 C 644 557.450, 648.970 567, 649.534 567 C 649.809 567, 648.847 564.638, 647.397 561.750 C 644.607 556.197, 644 555.235, 644 556.367 M 241.637 563.484 C 240.650 566.614, 240.057 569.390, 240.319 569.653 C 240.987 570.320, 244.246 560.237, 243.797 558.892 C 243.596 558.287, 242.623 560.354, 241.637 563.484 M 655.793 576.622 C 665.114 590.376, 674.574 598.750, 692.122 608.785 C 695.214 610.553, 698.134 612, 698.611 612 C 699.089 612, 694.368 608.962, 688.122 605.250 C 674.170 596.958, 665.125 588.768, 657.467 577.493 C 654.249 572.757, 651.203 568.625, 650.696 568.312 C 650.190 567.999, 652.484 571.739, 655.793 576.622 M 593.418 570.750 C 610.951 570.934, 620.793 571.413, 621.647 572.122 C 622.632 572.939, 623.032 578.242, 623.252 593.356 L 623.544 613.500 623.772 593.321 C 623.967 576.104, 623.769 572.912, 622.429 571.571 C 621.065 570.208, 617.260 570.031, 593.679 570.233 L 566.500 570.466 593.418 570.750 M 236.750 578.803 C 233.074 589.197, 233.334 590.574, 237.088 580.592 C 238.723 576.243, 239.935 572.311, 239.781 571.856 C 239.626 571.400, 238.262 574.527, 236.750 578.803 M 193.718 582.029 C 198.238 586.413, 202.345 590, 202.846 590 C 203.346 590, 200.067 586.400, 195.560 582 C 191.052 577.600, 186.944 574.013, 186.432 574.029 C 185.919 574.045, 189.198 577.645, 193.718 582.029 M 743.750 577.723 C 745.538 577.945, 748.462 577.945, 750.250 577.723 C 752.038 577.502, 750.575 577.320, 747 577.320 C 743.425 577.320, 741.962 577.502, 743.750 577.723 M 217.437 584.122 C 215.822 585.839, 213.150 587.846, 211.500 588.583 C 209.850 589.319, 209.147 589.939, 209.938 589.961 C 211.866 590.013, 217.072 586.361, 219.297 583.395 C 221.792 580.069, 220.935 580.404, 217.437 584.122 M 230.990 596.250 C 230.392 598.587, 229.472 601.810, 228.947 603.412 C 228.421 605.014, 228.191 606.525, 228.436 606.770 C 228.681 607.015, 229.618 604.579, 230.519 601.357 C 231.420 598.136, 232.377 594.712, 232.646 593.750 C 232.915 592.788, 232.897 592, 232.606 592 C 232.315 592, 231.588 593.913, 230.990 596.250 M 221.515 625.764 C 217.916 636.683, 215.563 645.614, 215.394 649 L 215.118 654.500 215.901 649 C 216.331 645.975, 219.283 635.716, 222.461 626.203 C 225.639 616.689, 228.042 608.708, 227.800 608.467 C 227.559 608.226, 224.731 616.009, 221.515 625.764 M 701.080 612.907 C 703.053 614.159, 717.855 619.027, 719.378 618.925 C 720.418 618.855, 706.578 613.829, 701.674 612.495 C 699.945 612.026, 699.824 612.110, 701.080 612.907 M 621.541 614.933 C 621.103 615.643, 612.527 616, 595.941 616 C 578.244 616, 571 616.324, 571 617.117 C 571 617.787, 571.900 617.992, 573.250 617.630 C 574.487 617.299, 585.625 617.014, 598 616.998 C 618.277 616.972, 624.660 616.327, 622.821 614.488 C 622.480 614.146, 621.904 614.347, 621.541 614.933 M 491.872 616.250 C 493.106 617.823, 495.182 617.977, 512.372 617.773 L 531.500 617.547 512.575 617.251 C 499.550 617.047, 493.159 616.572, 492.075 615.727 C 490.685 614.645, 490.662 614.706, 491.872 616.250 M 416.500 617.038 C 419.800 617.448, 424.975 617.763, 428 617.739 L 433.500 617.695 427 616.964 C 423.425 616.563, 418.250 616.247, 415.500 616.264 L 410.500 616.294 416.500 617.038 M 438.776 617.733 C 441.128 617.945, 444.728 617.942, 446.776 617.727 C 448.824 617.512, 446.900 617.339, 442.500 617.343 C 438.100 617.346, 436.424 617.522, 438.776 617.733 M 548.776 617.733 C 551.128 617.945, 554.728 617.942, 556.776 617.727 C 558.824 617.512, 556.900 617.339, 552.500 617.343 C 548.100 617.346, 546.424 617.522, 548.776 617.733 M 728.500 620.974 C 731.539 621.774, 740.683 622.305, 739.917 621.637 C 739.688 621.437, 736.350 621.028, 732.500 620.729 C 728.254 620.398, 726.680 620.495, 728.500 620.974 M 255.967 655.168 C 254.311 657.224, 252.181 658.487, 249.499 659.002 C 245.620 659.747, 245.598 659.773, 248.765 659.885 C 251.184 659.970, 252.996 659.114, 255.761 656.580 C 257.814 654.699, 259.255 652.922, 258.964 652.631 C 258.673 652.340, 257.324 653.482, 255.967 655.168" stroke="none" fill="#c464de" fill-rule="evenodd"/><path d="M 312.418 360.969 C 307.752 362.856, 305.379 367.707, 298.168 390.100 C 294.200 402.420, 288.955 418.575, 286.511 426 C 284.068 433.425, 281.195 442.714, 280.128 446.642 C 279.060 450.571, 277.515 454.846, 276.693 456.142 C 275.871 457.439, 274.686 460.975, 274.060 464 C 273.434 467.025, 271.411 474, 269.564 479.500 C 267.718 485, 263.868 496.925, 261.009 506 C 249.126 543.726, 243.464 561.436, 237.990 578 C 234.809 587.625, 231.243 598.650, 230.066 602.500 C 228.888 606.350, 225.218 617.744, 221.910 627.819 C 214.933 649.072, 214.518 653.826, 219.327 657.399 C 221.890 659.304, 223.477 659.499, 236.327 659.484 C 246.109 659.473, 251.218 659.064, 252.817 658.163 C 256.972 655.822, 260.983 647.789, 266.131 631.500 C 268.911 622.700, 272.650 611, 274.439 605.500 C 276.228 600, 279.369 590.100, 281.418 583.500 C 283.467 576.900, 287.364 564.750, 290.078 556.500 C 292.792 548.250, 295.009 540.533, 295.006 539.352 C 295.003 538.170, 296.350 534.637, 298 531.500 C 299.650 528.363, 301 525.029, 301 524.090 C 301 521.817, 323.605 453.200, 325.408 450 C 326.183 448.625, 327.133 445.700, 327.520 443.500 C 327.908 441.300, 328.883 438.451, 329.688 437.169 C 330.493 435.887, 330.939 434.282, 330.678 433.603 C 330.417 432.923, 331.279 430.147, 332.593 427.434 C 333.907 424.720, 334.986 421.722, 334.991 420.771 C 335.001 418.786, 337.088 412.019, 344.636 389.489 C 350.864 370.900, 351.342 366.148, 347.354 362.452 C 344.781 360.067, 344.292 360.002, 329.604 360.063 C 321.297 360.098, 313.563 360.506, 312.418 360.969 M 734.699 393.071 C 730.408 393.535, 722.533 395.100, 717.199 396.550 C 681.278 406.311, 654.796 431.902, 641.189 470 C 636.514 483.092, 635.667 488.918, 635.592 508.500 C 635.517 528.369, 637.133 539.485, 641.407 548.500 C 649.466 565.497, 651.558 569.337, 656.935 577 C 660.216 581.675, 666.016 588.425, 669.824 592 C 683.218 604.573, 705.195 615.391, 726 619.653 C 736.476 621.799, 755.131 622.164, 762.880 620.374 C 766.296 619.585, 769.524 619.206, 770.053 619.533 C 770.581 619.859, 772.248 619.265, 773.757 618.211 C 775.266 617.158, 779.396 615.331, 782.935 614.151 C 794.935 610.151, 807.392 602.368, 816.839 592.969 C 821.602 588.229, 826.802 582.674, 828.393 580.624 C 831.814 576.219, 841 558.593, 841 556.437 C 841 555.612, 841.675 554.678, 842.500 554.362 C 843.325 554.045, 844 552.934, 844 551.893 C 844 550.852, 844.675 550, 845.500 550 C 847.263 550, 847.634 544.378, 845.909 543.803 C 845.120 543.540, 845.120 541.801, 845.909 537.536 C 846.509 534.289, 847 523.445, 847 513.439 C 847 498.777, 846.719 495.012, 845.552 494.043 C 844.456 493.134, 832.960 492.932, 798.302 493.215 C 773.111 493.420, 751.712 493.954, 750.750 494.401 C 749.186 495.128, 749 496.985, 749 511.907 C 749 523.557, 749.363 528.963, 750.200 529.800 C 751 530.600, 755.416 531.001, 763.450 531.004 C 770.077 531.006, 781.237 531.301, 788.250 531.658 L 801 532.309 801 535.065 C 801 546.819, 788.679 564.055, 775.041 571.377 C 760.720 579.066, 736.438 579.591, 720.528 572.555 C 711.976 568.773, 700.944 560.647, 696.405 554.787 C 690.101 546.647, 684.135 533.581, 683.367 526.233 C 683.008 522.805, 682.273 520, 681.732 520 C 680.046 520, 681.458 492.271, 683.438 486.500 C 687.410 474.915, 693.850 463.502, 700.507 456.250 C 704.167 452.262, 707.553 449, 708.031 449 C 708.509 449, 710.954 447.614, 713.465 445.919 C 719.597 441.780, 727.523 439.118, 737.580 437.820 C 755.869 435.459, 773.042 440.973, 789.555 454.508 C 793.239 457.529, 796.979 460, 797.864 460 C 800.060 460, 825.541 434.096, 826.290 431.102 C 826.785 429.126, 825.795 427.609, 820.650 422.465 C 810.296 412.111, 795.715 403.686, 777.500 397.531 C 773.100 396.045, 768.487 394.182, 767.250 393.391 C 765.875 392.513, 765 392.371, 765 393.027 C 765 393.738, 762.897 393.902, 758.750 393.513 C 745.984 392.315, 742.317 392.247, 734.699 393.071 M 411.250 395.422 L 408 396.903 408 505.329 C 408 598.090, 408.206 613.926, 409.429 614.941 C 411.232 616.437, 449.865 617.584, 451.850 616.200 C 452.592 615.682, 453.492 613.829, 453.850 612.083 C 454.207 610.336, 454.275 561.250, 454 503.003 C 453.616 421.626, 453.218 396.817, 452.281 395.881 C 450.308 393.908, 415.429 393.518, 411.250 395.422 M 491.667 395.667 C 491.300 396.033, 491 445.478, 491 505.544 C 491 602.773, 491.169 614.896, 492.544 616.036 C 494.558 617.708, 619.648 616.537, 621.709 614.827 C 623.491 613.347, 623.576 573.976, 621.800 572.200 C 620.905 571.305, 610.089 571, 579.300 571 L 538 571 537.990 530.750 C 537.976 471.581, 536.845 399.833, 535.885 397.250 C 535.054 395.013, 534.926 395, 513.691 395 C 501.944 395, 492.033 395.300, 491.667 395.667 M 210.387 424.285 C 209.224 424.953, 196.624 436.790, 182.387 450.588 C 168.149 464.386, 151.469 480.253, 145.319 485.846 C 132.026 497.938, 128.435 503.769, 129.224 511.980 C 129.831 518.293, 132.630 521.763, 150.752 538.663 C 158.314 545.714, 172.911 559.779, 183.190 569.918 C 193.470 580.058, 202.619 588.767, 203.523 589.273 C 208.116 591.843, 218.060 585.724, 222.072 577.858 C 225.874 570.407, 225.232 569.096, 210.129 553.465 C 203.733 546.845, 196.222 538.970, 193.439 535.965 C 190.655 532.959, 183.793 526.100, 178.189 520.721 C 172.585 515.343, 168 510.319, 168 509.556 C 168 508.247, 184.899 491.237, 214.744 462.505 C 229.743 448.066, 232 445.009, 232 439.135 C 232 435.770, 231.306 434.236, 228.250 430.847 C 224.433 426.613, 218.113 423.033, 214.500 423.057 C 213.400 423.065, 211.549 423.617, 210.387 424.285" stroke="none" fill="#ba15e3" fill-rule="evenodd"/></svg>